<svg width="1164px" height="1264px"
 viewBox="0.00 0.00 581.89 631.60" xmlns="http://www.w3.org/2000/svg" xmlns:xlink="http://www.w3.org/1999/xlink">
<g id="graph0" class="graph" transform="scale(1.0 1.0) rotate(0) translate(4 627.6)">
<title>candidate_workflow_1</title>
<polygon fill="white" stroke="transparent" points="-4,4 -4,-627.6 577.89,-627.6 577.89,4 -4,4"/>
<g id="clust3" class="cluster">
<title>cluster_outputs_frame</title>
<polygon fill="none" stroke="black" stroke-dasharray="5,2" points="8,-8 8,-88.8 142,-88.8 142,-8 8,-8"/>
<text text-anchor="start" x="19.77" y="-73.2" font-family="Arial" font-weight="bold" font-size="14.00">Workflow Outputs</text>
</g>
<g id="clust1" class="cluster">
<title>cluster_inputs_frame</title>
<polygon fill="none" stroke="black" stroke-dasharray="5,2" points="138,-534.8 138,-615.6 454,-615.6 454,-534.8 138,-534.8"/>
<text text-anchor="start" x="246.22" y="-600" font-family="Arial" font-weight="bold" font-size="14.00">Workflow Inputs</text>
</g>
<!-- &quot;http://edamontology.org/data_0943,http://edamontology.org/format_3244[MemT0.0]&quot; -->
<g id="node1" class="node">
<title>&quot;http://edamontology.org/data_0943,http://edamontology.org/format_3244[MemT0.0]&quot;</title>
<polygon fill="#6cf1ff" stroke="black" points="446.45,-582.8 321.55,-582.8 321.55,-542.8 446.45,-542.8 446.45,-582.8"/>
<text text-anchor="start" x="329.78" y="-565.4" font-family="Arial" font-size="16.00">Mass spectrum</text>
<text text-anchor="start" x="362.23" y="-549.4" font-family="Arial" font-weight="bold" font-style="italic" font-size="16.00">mzML</text>
</g>
<!-- &quot;http://edamontology.org/Comet_Tool1&quot; -->
<g id="node3" class="node">
<title>&quot;http://edamontology.org/Comet_Tool1&quot;</title>
<polygon fill="#f8ffb0" stroke="black" points="242.61,-478.8 179.39,-478.8 179.39,-442.8 242.61,-442.8 242.61,-478.8"/>
<text text-anchor="start" x="187.44" y="-457" font-family="Arial" font-weight="bold" font-size="16.00">Comet</text>
</g>
<!-- &quot;http://edamontology.org/data_0943,http://edamontology.org/format_3244[MemT0.0]&quot;&#45;&gt;&quot;http://edamontology.org/Comet_Tool1&quot; -->
<g id="edge3" class="edge">
<title>&quot;http://edamontology.org/data_0943,http://edamontology.org/format_3244[MemT0.0]&quot;&#45;&gt;&quot;http://edamontology.org/Comet_Tool1&quot;</title>
<path fill="none" stroke="black" d="M371.97,-542.66C361.9,-528.11 346.25,-508.63 328,-496.8 305.3,-482.08 276.15,-473.34 252.63,-468.27"/>
<polygon fill="black" stroke="black" points="253.09,-464.8 242.6,-466.26 251.72,-471.66 253.09,-464.8"/>
<text text-anchor="start" x="357" y="-513.2" font-family="Arial" font-size="14.00">Mass spectrum</text>
<text text-anchor="start" x="385.39" y="-499.2" font-family="Arial" font-weight="bold" font-style="italic" font-size="14.00">mzML</text>
</g>
<!-- &quot;http://edamontology.org/PeptideProphet_Tool2&quot; -->
<g id="node4" class="node">
<title>&quot;http://edamontology.org/PeptideProphet_Tool2&quot;</title>
<polygon fill="#f8ffb0" stroke="black" points="342.27,-378.8 215.73,-378.8 215.73,-342.8 342.27,-342.8 342.27,-378.8"/>
<text text-anchor="start" x="223.87" y="-357" font-family="Arial" font-weight="bold" font-size="16.00">PeptideProphet</text>
</g>
<!-- &quot;http://edamontology.org/data_0943,http://edamontology.org/format_3244[MemT0.0]&quot;&#45;&gt;&quot;http://edamontology.org/PeptideProphet_Tool2&quot; -->
<g id="edge2" class="edge">
<title>&quot;http://edamontology.org/data_0943,http://edamontology.org/format_3244[MemT0.0]&quot;&#45;&gt;&quot;http://edamontology.org/PeptideProphet_Tool2&quot;</title>
<path fill="none" stroke="black" d="M434.4,-542.77C442.5,-537.92 450.13,-531.98 456,-524.8 479.37,-496.24 489.34,-473.59 469,-442.8 443.1,-403.61 393.96,-383.32 352.14,-372.84"/>
<polygon fill="black" stroke="black" points="352.78,-369.4 342.24,-370.51 351.17,-376.21 352.78,-369.4"/>
<text text-anchor="start" x="479" y="-463.2" font-family="Arial" font-size="14.00">Mass spectrum</text>
<text text-anchor="start" x="507.39" y="-449.2" font-family="Arial" font-weight="bold" font-style="italic" font-size="14.00">mzML</text>
</g>
<!-- &quot;http://edamontology.org/data_2976_plain,http://edamontology.org/format_1929[MemT0.1]&quot; -->
<g id="node2" class="node">
<title>&quot;http://edamontology.org/data_2976_plain,http://edamontology.org/format_1929[MemT0.1]&quot;</title>
<polygon fill="#6cf1ff" stroke="black" points="286.49,-582.8 145.51,-582.8 145.51,-542.8 286.49,-542.8 286.49,-582.8"/>
<text text-anchor="start" x="153.76" y="-565.4" font-family="Arial" font-size="16.00">Protein sequence</text>
<text text-anchor="start" x="190.22" y="-549.4" font-family="Arial" font-weight="bold" font-style="italic" font-size="16.00">FASTA</text>
</g>
<!-- &quot;http://edamontology.org/data_2976_plain,http://edamontology.org/format_1929[MemT0.1]&quot;&#45;&gt;&quot;http://edamontology.org/data_0943,http://edamontology.org/format_3244[MemT0.0]&quot; -->
<!-- &quot;http://edamontology.org/data_2976_plain,http://edamontology.org/format_1929[MemT0.1]&quot;&#45;&gt;&quot;http://edamontology.org/Comet_Tool1&quot; -->
<g id="edge6" class="edge">
<title>&quot;http://edamontology.org/data_2976_plain,http://edamontology.org/format_1929[MemT0.1]&quot;&#45;&gt;&quot;http://edamontology.org/Comet_Tool1&quot;</title>
<path fill="none" stroke="black" d="M215.04,-542.52C214.28,-527.43 213.22,-506.26 212.38,-489.38"/>
<polygon fill="black" stroke="black" points="215.86,-488.83 211.86,-479.02 208.86,-489.18 215.86,-488.83"/>
<text text-anchor="start" x="215" y="-513.2" font-family="Arial" font-size="14.00">Protein sequence</text>
<text text-anchor="start" x="246.91" y="-499.2" font-family="Arial" font-weight="bold" font-style="italic" font-size="14.00">FASTA</text>
</g>
<!-- &quot;http://edamontology.org/data_2976_plain,http://edamontology.org/format_1929[MemT0.1]&quot;&#45;&gt;&quot;http://edamontology.org/PeptideProphet_Tool2&quot; -->
<g id="edge5" class="edge">
<title>&quot;http://edamontology.org/data_2976_plain,http://edamontology.org/format_1929[MemT0.1]&quot;&#45;&gt;&quot;http://edamontology.org/PeptideProphet_Tool2&quot;</title>
<path fill="none" stroke="black" d="M283.44,-542.76C305.22,-535.99 324.66,-529.01 328,-524.8 363.45,-480.13 365.04,-446.46 337,-396.8 334.56,-392.48 331.36,-388.64 327.7,-385.23"/>
<polygon fill="black" stroke="black" points="329.66,-382.32 319.66,-378.82 325.3,-387.79 329.66,-382.32"/>
<text text-anchor="start" x="356" y="-463.2" font-family="Arial" font-size="14.00">Protein sequence</text>
<text text-anchor="start" x="387.91" y="-449.2" font-family="Arial" font-weight="bold" font-style="italic" font-size="14.00">FASTA</text>
</g>
<!-- &quot;http://edamontology.org/ProteinProphet_Tool3&quot; -->
<g id="node5" class="node">
<title>&quot;http://edamontology.org/ProteinProphet_Tool3&quot;</title>
<polygon fill="#f8ffb0" stroke="black" points="136.2,-278.8 13.8,-278.8 13.8,-242.8 136.2,-242.8 136.2,-278.8"/>
<text text-anchor="start" x="21.65" y="-257" font-family="Arial" font-weight="bold" font-size="16.00">ProteinProphet</text>
</g>
<!-- &quot;http://edamontology.org/data_2976_plain,http://edamontology.org/format_1929[MemT0.1]&quot;&#45;&gt;&quot;http://edamontology.org/ProteinProphet_Tool3&quot; -->
<g id="edge4" class="edge">
<title>&quot;http://edamontology.org/data_2976_plain,http://edamontology.org/format_1929[MemT0.1]&quot;&#45;&gt;&quot;http://edamontology.org/ProteinProphet_Tool3&quot;</title>
<path fill="none" stroke="black" d="M189.94,-542.66C159.75,-518.82 111.32,-475.06 89.07,-424.8 69.45,-380.46 69.74,-322.78 72.11,-289.26"/>
<polygon fill="black" stroke="black" points="75.63,-289.13 72.97,-278.88 68.66,-288.55 75.63,-289.13"/>
<text text-anchor="start" x="90" y="-413.2" font-family="Arial" font-size="14.00">Protein sequence</text>
<text text-anchor="start" x="121.91" y="-399.2" font-family="Arial" font-weight="bold" font-style="italic" font-size="14.00">FASTA</text>
</g>
<!-- &quot;http://edamontology.org/Comet_Tool1&quot;&#45;&gt;&quot;http://edamontology.org/PeptideProphet_Tool2&quot; -->
<g id="edge7" class="edge">
<title>&quot;http://edamontology.org/Comet_Tool1&quot;&#45;&gt;&quot;http://edamontology.org/PeptideProphet_Tool2&quot;</title>
<path fill="none" stroke="black" d="M205.15,-442.69C201.64,-429.21 199.34,-410.47 207.85,-396.8 210.64,-392.31 214.2,-388.39 218.23,-384.95"/>
<polygon fill="black" stroke="black" points="220.46,-387.65 226.47,-378.93 216.33,-382 220.46,-387.65"/>
<text text-anchor="start" x="208" y="-413.2" font-family="Arial" font-size="14.00">Peptide identification</text>
<text text-anchor="start" x="246.51" y="-399.2" font-family="Arial" font-weight="bold" font-style="italic" font-size="14.00">pepXML</text>
</g>
<!-- &quot;http://edamontology.org/PeptideProphet_Tool2&quot;&#45;&gt;&quot;http://edamontology.org/ProteinProphet_Tool3&quot; -->
<g id="edge8" class="edge">
<title>&quot;http://edamontology.org/PeptideProphet_Tool2&quot;&#45;&gt;&quot;http://edamontology.org/ProteinProphet_Tool3&quot;</title>
<path fill="none" stroke="black" d="M243.47,-342.73C209.05,-326.2 156.76,-301.08 119.58,-283.21"/>
<polygon fill="black" stroke="black" points="121,-280.01 110.47,-278.84 117.97,-286.32 121,-280.01"/>
<text text-anchor="start" x="202" y="-313.2" font-family="Arial" font-size="14.00">Peptide identification</text>
<text text-anchor="start" x="240.51" y="-299.2" font-family="Arial" font-weight="bold" font-style="italic" font-size="14.00">pepXML</text>
</g>
<!-- &quot;http://edamontology.org/protXml2IdList_Tool4&quot; -->
<g id="node6" class="node">
<title>&quot;http://edamontology.org/protXml2IdList_Tool4&quot;</title>
<polygon fill="#f8ffb0" stroke="black" points="134.24,-178.8 15.76,-178.8 15.76,-142.8 134.24,-142.8 134.24,-178.8"/>
<text text-anchor="start" x="23.88" y="-157" font-family="Arial" font-weight="bold" font-size="16.00">protXml2IdList</text>
</g>
<!-- &quot;http://edamontology.org/ProteinProphet_Tool3&quot;&#45;&gt;&quot;http://edamontology.org/protXml2IdList_Tool4&quot; -->
<g id="edge9" class="edge">
<title>&quot;http://edamontology.org/ProteinProphet_Tool3&quot;&#45;&gt;&quot;http://edamontology.org/protXml2IdList_Tool4&quot;</title>
<path fill="none" stroke="black" d="M75,-242.73C75,-227.92 75,-206.23 75,-189.03"/>
<polygon fill="black" stroke="black" points="78.5,-189 75,-179 71.5,-189 78.5,-189"/>
<text text-anchor="start" x="75" y="-213.2" font-family="Arial" font-size="14.00">Peptide identification</text>
<text text-anchor="start" x="113.13" y="-199.2" font-family="Arial" font-weight="bold" font-style="italic" font-size="14.00">protXML</text>
</g>
<!-- &quot;http://edamontology.org/data_2872,http://edamontology.org/format_2330_plain[MemT4.0]&quot; -->
<g id="node7" class="node">
<title>&quot;http://edamontology.org/data_2872,http://edamontology.org/format_2330_plain[MemT4.0]&quot;</title>
<polygon fill="#6cf1ff" stroke="black" points="134.24,-56 15.76,-56 15.76,-16 134.24,-16 134.24,-56"/>
<text text-anchor="start" x="55" y="-38.6" font-family="Arial" font-size="16.00">ID list</text>
<text text-anchor="start" x="23.88" y="-22.6" font-family="Arial" font-weight="bold" font-style="italic" font-size="16.00">Textual format</text>
</g>
<!-- &quot;http://edamontology.org/protXml2IdList_Tool4&quot;&#45;&gt;&quot;http://edamontology.org/data_2872,http://edamontology.org/format_2330_plain[MemT4.0]&quot; -->
<g id="edge10" class="edge">
<title>&quot;http://edamontology.org/protXml2IdList_Tool4&quot;&#45;&gt;&quot;http://edamontology.org/data_2872,http://edamontology.org/format_2330_plain[MemT4.0]&quot;</title>
<path fill="none" stroke="black" d="M75,-142.73C75,-123.07 75,-90.42 75,-66.6"/>
<polygon fill="black" stroke="black" points="78.5,-66.36 75,-56.36 71.5,-66.36 78.5,-66.36"/>
<text text-anchor="start" x="102.23" y="-113.2" font-family="Arial" font-size="14.00">ID list</text>
<text text-anchor="start" x="75" y="-99.2" font-family="Arial" font-weight="bold" font-style="italic" font-size="14.00">Textual format</text>
</g>
</g>
</svg>
