<svg width="1210px" height="1064px"
 viewBox="0.00 0.00 604.89 531.60" xmlns="http://www.w3.org/2000/svg" xmlns:xlink="http://www.w3.org/1999/xlink">
<g id="graph0" class="graph" transform="scale(1.0 1.0) rotate(0) translate(4 527.6)">
<title>candidate_workflow_1</title>
<polygon fill="white" stroke="transparent" points="-4,4 -4,-527.6 600.89,-527.6 600.89,4 -4,4"/>
<g id="clust3" class="cluster">
<title>cluster_outputs_frame</title>
<polygon fill="none" stroke="black" stroke-dasharray="5,2" points="8,-8 8,-88.8 188,-88.8 188,-8 8,-8"/>
<text text-anchor="start" x="42.77" y="-73.2" font-family="Arial" font-weight="bold" font-size="14.00">Workflow Outputs</text>
</g>
<g id="clust1" class="cluster">
<title>cluster_inputs_frame</title>
<polygon fill="none" stroke="black" stroke-dasharray="5,2" points="161,-434.8 161,-515.6 477,-515.6 477,-434.8 161,-434.8"/>
<text text-anchor="start" x="269.22" y="-500" font-family="Arial" font-weight="bold" font-size="14.00">Workflow Inputs</text>
</g>
<!-- &quot;http://edamontology.org/data_0943,http://edamontology.org/format_3244[MemT0.0]&quot; -->
<g id="node1" class="node">
<title>&quot;http://edamontology.org/data_0943,http://edamontology.org/format_3244[MemT0.0]&quot;</title>
<polygon fill="#6cf1ff" stroke="black" points="469.45,-482.8 344.55,-482.8 344.55,-442.8 469.45,-442.8 469.45,-482.8"/>
<text text-anchor="start" x="352.78" y="-465.4" font-family="Arial" font-size="16.00">Mass spectrum</text>
<text text-anchor="start" x="385.23" y="-449.4" font-family="Arial" font-weight="bold" font-style="italic" font-size="16.00">mzML</text>
</g>
<!-- &quot;http://edamontology.org/Comet_Tool1&quot; -->
<g id="node3" class="node">
<title>&quot;http://edamontology.org/Comet_Tool1&quot;</title>
<polygon fill="#f8ffb0" stroke="black" points="265.61,-378.8 202.39,-378.8 202.39,-342.8 265.61,-342.8 265.61,-378.8"/>
<text text-anchor="start" x="210.44" y="-357" font-family="Arial" font-weight="bold" font-size="16.00">Comet</text>
</g>
<!-- &quot;http://edamontology.org/data_0943,http://edamontology.org/format_3244[MemT0.0]&quot;&#45;&gt;&quot;http://edamontology.org/Comet_Tool1&quot; -->
<g id="edge3" class="edge">
<title>&quot;http://edamontology.org/data_0943,http://edamontology.org/format_3244[MemT0.0]&quot;&#45;&gt;&quot;http://edamontology.org/Comet_Tool1&quot;</title>
<path fill="none" stroke="black" d="M394.97,-442.66C384.9,-428.11 369.25,-408.63 351,-396.8 328.3,-382.08 299.15,-373.34 275.63,-368.27"/>
<polygon fill="black" stroke="black" points="276.09,-364.8 265.6,-366.26 274.72,-371.66 276.09,-364.8"/>
<text text-anchor="start" x="380" y="-413.2" font-family="Arial" font-size="14.00">Mass spectrum</text>
<text text-anchor="start" x="408.39" y="-399.2" font-family="Arial" font-weight="bold" font-style="italic" font-size="14.00">mzML</text>
</g>
<!-- &quot;http://edamontology.org/PeptideProphet_Tool2&quot; -->
<g id="node4" class="node">
<title>&quot;http://edamontology.org/PeptideProphet_Tool2&quot;</title>
<polygon fill="#f8ffb0" stroke="black" points="365.27,-278.8 238.73,-278.8 238.73,-242.8 365.27,-242.8 365.27,-278.8"/>
<text text-anchor="start" x="246.87" y="-257" font-family="Arial" font-weight="bold" font-size="16.00">PeptideProphet</text>
</g>
<!-- &quot;http://edamontology.org/data_0943,http://edamontology.org/format_3244[MemT0.0]&quot;&#45;&gt;&quot;http://edamontology.org/PeptideProphet_Tool2&quot; -->
<g id="edge2" class="edge">
<title>&quot;http://edamontology.org/data_0943,http://edamontology.org/format_3244[MemT0.0]&quot;&#45;&gt;&quot;http://edamontology.org/PeptideProphet_Tool2&quot;</title>
<path fill="none" stroke="black" d="M457.4,-442.77C465.5,-437.92 473.13,-431.98 479,-424.8 502.37,-396.24 512.34,-373.59 492,-342.8 466.1,-303.61 416.96,-283.32 375.14,-272.84"/>
<polygon fill="black" stroke="black" points="375.78,-269.4 365.24,-270.51 374.17,-276.21 375.78,-269.4"/>
<text text-anchor="start" x="502" y="-363.2" font-family="Arial" font-size="14.00">Mass spectrum</text>
<text text-anchor="start" x="530.39" y="-349.2" font-family="Arial" font-weight="bold" font-style="italic" font-size="14.00">mzML</text>
</g>
<!-- &quot;http://edamontology.org/data_2976_plain,http://edamontology.org/format_1929[MemT0.1]&quot; -->
<g id="node2" class="node">
<title>&quot;http://edamontology.org/data_2976_plain,http://edamontology.org/format_1929[MemT0.1]&quot;</title>
<polygon fill="#6cf1ff" stroke="black" points="309.49,-482.8 168.51,-482.8 168.51,-442.8 309.49,-442.8 309.49,-482.8"/>
<text text-anchor="start" x="176.76" y="-465.4" font-family="Arial" font-size="16.00">Protein sequence</text>
<text text-anchor="start" x="213.22" y="-449.4" font-family="Arial" font-weight="bold" font-style="italic" font-size="16.00">FASTA</text>
</g>
<!-- &quot;http://edamontology.org/data_2976_plain,http://edamontology.org/format_1929[MemT0.1]&quot;&#45;&gt;&quot;http://edamontology.org/data_0943,http://edamontology.org/format_3244[MemT0.0]&quot; -->
<!-- &quot;http://edamontology.org/data_2976_plain,http://edamontology.org/format_1929[MemT0.1]&quot;&#45;&gt;&quot;http://edamontology.org/Comet_Tool1&quot; -->
<g id="edge6" class="edge">
<title>&quot;http://edamontology.org/data_2976_plain,http://edamontology.org/format_1929[MemT0.1]&quot;&#45;&gt;&quot;http://edamontology.org/Comet_Tool1&quot;</title>
<path fill="none" stroke="black" d="M238.04,-442.52C237.28,-427.43 236.22,-406.26 235.38,-389.38"/>
<polygon fill="black" stroke="black" points="238.86,-388.83 234.86,-379.02 231.86,-389.18 238.86,-388.83"/>
<text text-anchor="start" x="238" y="-413.2" font-family="Arial" font-size="14.00">Protein sequence</text>
<text text-anchor="start" x="269.91" y="-399.2" font-family="Arial" font-weight="bold" font-style="italic" font-size="14.00">FASTA</text>
</g>
<!-- &quot;http://edamontology.org/data_2976_plain,http://edamontology.org/format_1929[MemT0.1]&quot;&#45;&gt;&quot;http://edamontology.org/PeptideProphet_Tool2&quot; -->
<g id="edge5" class="edge">
<title>&quot;http://edamontology.org/data_2976_plain,http://edamontology.org/format_1929[MemT0.1]&quot;&#45;&gt;&quot;http://edamontology.org/PeptideProphet_Tool2&quot;</title>
<path fill="none" stroke="black" d="M306.44,-442.76C328.22,-435.99 347.66,-429.01 351,-424.8 386.45,-380.13 388.04,-346.46 360,-296.8 357.56,-292.48 354.36,-288.64 350.7,-285.23"/>
<polygon fill="black" stroke="black" points="352.66,-282.32 342.66,-278.82 348.3,-287.79 352.66,-282.32"/>
<text text-anchor="start" x="379" y="-363.2" font-family="Arial" font-size="14.00">Protein sequence</text>
<text text-anchor="start" x="410.91" y="-349.2" font-family="Arial" font-weight="bold" font-style="italic" font-size="14.00">FASTA</text>
</g>
<!-- &quot;http://edamontology.org/ProteinProphet_Tool3&quot; -->
<g id="node5" class="node">
<title>&quot;http://edamontology.org/ProteinProphet_Tool3&quot;</title>
<polygon fill="#f8ffb0" stroke="black" points="159.2,-178.8 36.8,-178.8 36.8,-142.8 159.2,-142.8 159.2,-178.8"/>
<text text-anchor="start" x="44.65" y="-157" font-family="Arial" font-weight="bold" font-size="16.00">ProteinProphet</text>
</g>
<!-- &quot;http://edamontology.org/data_2976_plain,http://edamontology.org/format_1929[MemT0.1]&quot;&#45;&gt;&quot;http://edamontology.org/ProteinProphet_Tool3&quot; -->
<g id="edge4" class="edge">
<title>&quot;http://edamontology.org/data_2976_plain,http://edamontology.org/format_1929[MemT0.1]&quot;&#45;&gt;&quot;http://edamontology.org/ProteinProphet_Tool3&quot;</title>
<path fill="none" stroke="black" d="M212.94,-442.66C182.75,-418.82 134.32,-375.06 112.07,-324.8 92.45,-280.46 92.74,-222.78 95.11,-189.26"/>
<polygon fill="black" stroke="black" points="98.63,-189.13 95.97,-178.88 91.66,-188.55 98.63,-189.13"/>
<text text-anchor="start" x="113" y="-313.2" font-family="Arial" font-size="14.00">Protein sequence</text>
<text text-anchor="start" x="144.91" y="-299.2" font-family="Arial" font-weight="bold" font-style="italic" font-size="14.00">FASTA</text>
</g>
<!-- &quot;http://edamontology.org/Comet_Tool1&quot;&#45;&gt;&quot;http://edamontology.org/PeptideProphet_Tool2&quot; -->
<g id="edge7" class="edge">
<title>&quot;http://edamontology.org/Comet_Tool1&quot;&#45;&gt;&quot;http://edamontology.org/PeptideProphet_Tool2&quot;</title>
<path fill="none" stroke="black" d="M228.15,-342.69C224.64,-329.21 222.34,-310.47 230.85,-296.8 233.64,-292.31 237.2,-288.39 241.23,-284.95"/>
<polygon fill="black" stroke="black" points="243.46,-287.65 249.47,-278.93 239.33,-282 243.46,-287.65"/>
<text text-anchor="start" x="231" y="-313.2" font-family="Arial" font-size="14.00">Peptide identification</text>
<text text-anchor="start" x="269.51" y="-299.2" font-family="Arial" font-weight="bold" font-style="italic" font-size="14.00">pepXML</text>
</g>
<!-- &quot;http://edamontology.org/PeptideProphet_Tool2&quot;&#45;&gt;&quot;http://edamontology.org/ProteinProphet_Tool3&quot; -->
<g id="edge8" class="edge">
<title>&quot;http://edamontology.org/PeptideProphet_Tool2&quot;&#45;&gt;&quot;http://edamontology.org/ProteinProphet_Tool3&quot;</title>
<path fill="none" stroke="black" d="M266.47,-242.73C232.05,-226.2 179.76,-201.08 142.58,-183.21"/>
<polygon fill="black" stroke="black" points="144,-180.01 133.47,-178.84 140.97,-186.32 144,-180.01"/>
<text text-anchor="start" x="225" y="-213.2" font-family="Arial" font-size="14.00">Peptide identification</text>
<text text-anchor="start" x="263.51" y="-199.2" font-family="Arial" font-weight="bold" font-style="italic" font-size="14.00">pepXML</text>
</g>
<!-- &quot;http://edamontology.org/data_0945,http://edamontology.org/format_3747[MemT3.0]&quot; -->
<g id="node6" class="node">
<title>&quot;http://edamontology.org/data_0945,http://edamontology.org/format_3747[MemT3.0]&quot;</title>
<polygon fill="#6cf1ff" stroke="black" points="179.6,-56 16.4,-56 16.4,-16 179.6,-16 179.6,-56"/>
<text text-anchor="start" x="24.2" y="-38.6" font-family="Arial" font-size="16.00">Peptide identification</text>
<text text-anchor="start" x="67.77" y="-22.6" font-family="Arial" font-weight="bold" font-style="italic" font-size="16.00">protXML</text>
</g>
<!-- &quot;http://edamontology.org/ProteinProphet_Tool3&quot;&#45;&gt;&quot;http://edamontology.org/data_0945,http://edamontology.org/format_3747[MemT3.0]&quot; -->
<g id="edge9" class="edge">
<title>&quot;http://edamontology.org/ProteinProphet_Tool3&quot;&#45;&gt;&quot;http://edamontology.org/data_0945,http://edamontology.org/format_3747[MemT3.0]&quot;</title>
<path fill="none" stroke="black" d="M98,-142.73C98,-123.07 98,-90.42 98,-66.6"/>
<polygon fill="black" stroke="black" points="101.5,-66.36 98,-56.36 94.5,-66.36 101.5,-66.36"/>
<text text-anchor="start" x="98" y="-113.2" font-family="Arial" font-size="14.00">Peptide identification</text>
<text text-anchor="start" x="136.13" y="-99.2" font-family="Arial" font-weight="bold" font-style="italic" font-size="14.00">protXML</text>
</g>
</g>
</svg>
